:SAMPLES-PER-SECOND 30
:FULLY-SPECIFIED
:DEGREES
1336
root  0.662429 40.6888 4.6475 35.5149 86.1866 35.2696
RightUpLeg  1.80983 -9.77896 -5.93375
RightLeg  9.91418 -3.43253 3.01979
RightFoot  -9.88148 -0.0510203 -1.23275
RightToes  0.000482159 0.542163 -0.142577
Spine  6.39759 2.18654 3.27766
Spine1  -0.85426 3.21193 -4.06368
HEad  -3.78924 2.37545 -0.592367
LeftShoulder1  1.32273 -3.47417 -11.7609
LeftArm  -14.0185 12.842 -2.51217
LeftForeArm  21.7691 -10.0408 -3.25571
LeftHand  -0.25398 0.0180481 5.50724
RightShoulder  0.694605 0.644364 9.39919
RightArm  -22.0253 -9.96123 4.3569
RightForeArm  -11.9062 12.8081 4.43528
RightHand  -4.25165 12.5017 -27.5263
LeftUpLeg  -0.733236 7.33267 0.625321
LeftLeg  8.58748 18.8205 -0.534024
LeftFoot  -7.29542 0.0697558 -0.731501
LeftToes  1.06246e-005 4.65854e-005 -8.18502e-006
1337
root  0.562517 40.7288 4.65986 35.1183 86.056 34.8727
RightUpLeg  1.85902 -9.58454 -5.95685
RightLeg  9.38195 -3.63533 3.17307
RightFoot  -9.43961 -0.0377474 -1.58461
RightToes  0.000482159 0.542163 -0.142577
Spine  6.40211 2.23594 3.39136
Spine1  -0.939265 3.3166 -4.37444
HEad  -4.01489 2.2051 -0.643937
LeftShoulder1  1.26234 -3.40101 -11.0215
LeftArm  -13.2647 11.8636 -3.41263
LeftForeArm  22.3928 -8.83364 -3.5531
LeftHand  -0.25398 0.0180481 5.50724
RightShoulder  0.737293 0.822161 9.73185
RightArm  -21.243 -9.66925 4.2237
RightForeArm  -10.6291 11.3933 4.38051
RightHand  -4.05979 12.2268 -26.7407
LeftUpLeg  -0.537226 6.88567 0.706873
LeftLeg  7.8033 19.4379 -1.06851
LeftFoot  -6.65728 0.0620733 -0.536902
LeftToes  1.06246e-005 4.65854e-005 -8.18502e-006
1338
root  0.486595 40.7644 4.65605 34.7186 85.9992 34.5758
RightUpLeg  2.04781 -9.6032 -6.10103
RightLeg  9.00085 -3.4582 3.41543
RightFoot  -9.05522 -0.0333275 -1.40595
RightToes  0.000482159 0.542163 -0.142577
Spine  6.50754 2.26725 3.50674
Spine1  -0.976265 3.40436 -4.65117
HEad  -4.18466 2.13337 -0.792404
LeftShoulder1  1.28145 -3.63856 -10.644
LeftArm  -12.8588 11.2473 -4.04764
LeftForeArm  23.4224 -7.77019 -3.63189
LeftHand  -0.25398 0.0180481 5.50724
RightShoulder  0.783188 0.947054 10.3502
RightArm  -20.7401 -9.47566 4.17578
RightForeArm  -9.60757 10.1855 4.30104
RightHand  -3.95265 12.129 -26.2081
LeftUpLeg  -0.136939 6.46152 0.846921
LeftLeg  6.93483 19.9516 -1.67179
LeftFoot  -6.16495 0.0620123 -0.544791
LeftToes  1.06246e-005 4.65854e-005 -8.18502e-006
1339
root  0.43311 40.7885 4.64767 35.5387 86.0812 35.4186
RightUpLeg  2.20212 -9.53348 -6.1613
RightLeg  8.59121 -3.51304 3.53407
RightFoot  -8.72947 -0.0308694 -1.23374
RightToes  0.000482159 0.542163 -0.142577
Spine  6.4282 2.25875 3.1681
Spine1  -0.828051 3.31733 -4.26054
HEad  -4.41273 2.34724 -1.17369
LeftShoulder1  1.3603 -3.90053 -11.1259
LeftArm  -12.615 10.8255 -4.09039
LeftForeArm  23.9315 -7.03513 -3.66561
LeftHand  -0.25398 0.0180481 5.50724
RightShoulder  0.810864 1.02866 10.6771
RightArm  -20.5747 -9.35288 4.51532
RightForeArm  -8.83397 9.33677 4.19015
RightHand  -3.81898 11.8806 -25.7109
LeftUpLeg  0.0869631 6.06009 0.91654
LeftLeg  6.28557 20.2762 -2.08403
LeftFoot  -5.80783 0.0617165 -0.522296
LeftToes  1.06246e-005 4.65854e-005 -8.18502e-006
1340
root  0.397336 40.8098 4.62783 38.2834 86.261 38.0789
RightUpLeg  2.26882 -9.33287 -6.11802
RightLeg  8.13342 -4.07697 3.4697
RightFoot  -8.45139 -0.0203055 -1.46216
RightToes  0.000482159 0.542163 -0.142577
Spine  6.21996 2.18192 2.51506
Spine1  -0.603034 3.07638 -3.45991
HEad  -4.70742 2.78054 -1.59462
LeftShoulder1  1.421 -3.9189 -11.9795
LeftArm  -12.4544 10.5134 -3.95338
LeftForeArm  24.015 -6.78797 -3.73123
LeftHand  -0.25398 0.0180481 5.50724
RightShoulder  0.830614 1.1412 10.668
RightArm  -20.5307 -9.40564 5.16221
RightForeArm  -8.21693 8.80896 4.08444
RightHand  -3.67591 11.5272 -25.2868
LeftUpLeg  0.119481 5.55753 0.816013
LeftLeg  5.77922 20.5475 -2.28646
LeftFoot  -5.50261 0.0527874 -0.359851
LeftToes  1.06246e-005 4.65854e-005 -8.18502e-006
1341
root  0.374892 40.8285 4.5794 41.8969 86.5022 41.6091
RightUpLeg  2.32484 -9.23208 -6.12171
RightLeg  7.79515 -4.58459 3.41227
RightFoot  -8.26037 -0.0143013 -1.54992
RightToes  0.000482159 0.542163 -0.142577
Spine  6.17225 2.05339 2.17439
Spine1  -0.55163 2.87016 -3.09698
HEad  -4.87739 3.07751 -1.80433
LeftShoulder1  1.43849 -3.87551 -12.3619
LeftArm  -12.469 10.4426 -4.17565
LeftForeArm  24.359 -6.96168 -3.75261
LeftHand  -0.25398 0.0180481 5.50724
RightShoulder  0.855622 1.23988 10.8406
RightArm  -20.3877 -9.72246 5.65779
RightForeArm  -7.60513 8.56611 4.0159
RightHand  -3.63281 11.4041 -25.178
LeftUpLeg  0.110661 5.12407 0.649851
LeftLeg  5.40099 20.6819 -2.37365
LeftFoot  -5.3359 0.0418629 -0.173946
LeftToes  1.06246e-005 4.65854e-005 -8.18502e-006
1342
root  0.367355 40.8321 4.49928 44.6016 86.7462 44.2733
RightUpLeg  2.37811 -9.3023 -6.23577
RightLeg  7.67503 -4.64738 3.47103
RightFoot  -8.18368 -0.0232111 -1.16771
RightToes  0.000482159 0.542163 -0.142577
Spine  6.28196 1.97398 2.23873
Spine1  -0.615984 2.81576 -3.24185
HEad  -4.78107 3.07207 -1.86512
LeftShoulder1  1.46143 -4.01497 -12.3025
LeftArm  -12.639 10.5982 -4.66645
LeftForeArm  25.142 -7.24384 -3.68777
LeftHand  -0.25398 0.0180481 5.50724
RightShoulder  0.884015 1.26474 11.3976
RightArm  -20.1228 -10.1464 5.70369
RightForeArm  -6.65004 8.43625 3.95412
RightHand  -3.62726 11.4494 -25.0771
LeftUpLeg  0.0514574 5.05955 0.567603
LeftLeg  5.37823 20.494 -2.38999
LeftFoot  -5.50993 0.0434345 -0.202621
LeftToes  1.06246e-005 4.65854e-005 -8.18502e-006
1343
root  0.381421 40.8176 4.39776 46.0637 86.9331 45.709
RightUpLeg  2.37043 -9.44828 -6.39192
RightLeg  7.77084 -4.60725 3.54455
RightFoot  -8.22668 -0.0318636 -0.878914
RightToes  0.000482159 0.542163 -0.142577
Spine  6.28167 1.99192 2.21574
Spine1  -0.456896 2.82852 -3.19622
HEad  -4.55621 3.00181 -1.96199
LeftShoulder1  1.51325 -4.23094 -12.4452
LeftArm  -12.8342 10.7838 -5.00215
LeftForeArm  25.9467 -7.46052 -3.59521
LeftHand  -0.25398 0.0180481 5.50724
RightShoulder  0.906592 1.26751 11.909
RightArm  -19.9095 -10.4364 5.54441
RightForeArm  -5.35056 8.15699 3.84072
RightHand  -3.53669 11.3612 -24.603
LeftUpLeg  -0.10461 5.37109 0.547179
LeftLeg  5.77733 20.0007 -2.31844
LeftFoot  -6.06462 0.0610563 -0.537391
LeftToes  1.06246e-005 4.65854e-005 -8.18502e-006
1344
root  0.421245 40.7962 4.27873 47.8834 87.0998 47.5366
RightUpLeg  2.3813 -9.58645 -6.54292
RightLeg  7.97876 -4.76673 3.52487
RightFoot  -8.42631 -0.034111 -0.904478
RightToes  0.000482159 0.542163 -0.142577
Spine  6.12218 2.01388 1.93714
Spine1  0.012035 2.77596 -2.75246
HEad  -4.35128 3.08766 -2.04529
LeftShoulder1  1.56298 -4.30329 -12.9487
LeftArm  -13.0312 10.9576 -5.1517
LeftForeArm  26.3509 -7.74711 -3.5254
LeftHand  -0.25398 0.0180481 5.50724
RightShoulder  0.920812 1.31003 12.0507
RightArm  -19.9414 -10.5891 5.59496
RightForeArm  -4.45604 7.74084 3.68373
RightHand  -3.43182 11.1794 -24.1587
LeftUpLeg  -0.263275 5.76958 0.455367
LeftLeg  6.3714 19.3996 -2.11483
LeftFoot  -6.8358 0.079693 -0.981803
LeftToes  1.06246e-005 4.65854e-005 -8.18502e-006
1345
root  0.483606 40.7721 4.13684 51.8881 87.3112 51.6452
RightUpLeg  2.55101 -9.67814 -6.73406
RightLeg  8.19189 -4.90977 3.395
RightFoot  -8.78475 -0.0476065 -0.522659
RightToes  0.000482159 0.542163 -0.142577
Spine  6.0483 1.94126 1.70363
Spine1  0.486412 2.65059 -2.43475
HEad  -4.00039 3.19122 -1.94378
LeftShoulder1  1.59542 -4.27182 -13.4941
LeftArm  -13.361 11.2264 -5.39288
LeftForeArm  26.2367 -8.16726 -3.44083
LeftHand  -0.25398 0.0180481 5.50724
RightShoulder  0.936426 1.38035 12.0999
RightArm  -20.2047 -10.8358 5.89708
RightForeArm  -4.65323 7.56449 3.57159
RightHand  -3.43954 11.1086 -24.3075
LeftUpLeg  -0.321268 5.98388 0.210297
LeftLeg  6.99438 18.886 -1.75455
LeftFoot  -7.66215 0.086501 -1.25557
LeftToes  1.06246e-005 4.65854e-005 -8.18502e-006
1346
root  0.563226 40.7353 3.97182 58.3845 87.4723 58.3474
RightUpLeg  2.71695 -9.90002 -7.03654
RightLeg  8.71896 -4.77518 3.07616
RightFoot  -9.27385 -0.0706944 0.441642
RightToes  0.000482159 0.542163 -0.142577
Spine  6.19154 1.82186 1.59592
Spine1  0.770175 2.54873 -2.55221
HEad  -3.29035 3.06152 -1.66736
LeftShoulder1  1.647 -4.32244 -14.0706
LeftArm  -13.9243 11.5483 -5.7604
LeftForeArm  25.7884 -8.5335 -3.27867
LeftHand  -0.25398 0.0180481 5.50724
RightShoulder  0.970039 1.4739 12.4479
RightArm  -20.4706 -11.3659 6.26492
RightForeArm  -5.55802 7.92716 3.57897
RightHand  -3.50065 11.0869 -24.7495
LeftUpLeg  -0.282587 5.99638 -0.203313
LeftLeg  7.66344 18.5064 -1.31749
LeftFoot  -8.49279 0.0844728 -1.34317
LeftToes  1.06246e-005 4.65854e-005 -8.18502e-006
1347
root  0.655278 40.6717 3.79299 65.0138 87.3976 65.2489
RightUpLeg  2.40764 -10.8701 -7.44963
RightLeg  10.337 -4.04571 2.32898
RightFoot  -10.0057 -0.0809402 1.07714
RightToes  0.000482159 0.542163 -0.142577
Spine  6.45732 1.7669 1.3403
Spine1  1.04026 2.53235 -2.86284
HEad  -2.43475 2.69644 -1.36868
LeftShoulder1  1.75472 -4.52236 -14.9661
LeftArm  -14.6031 11.884 -6.10559
LeftForeArm  25.285 -8.90769 -3.0777
LeftHand  -0.25398 0.0180481 5.50724
RightShoulder  1.02748 1.61906 13.0766
RightArm  -20.5529 -12.1432 6.77787
RightForeArm  -6.08071 8.6806 3.68043
RightHand  -3.4727 10.9432 -24.765
LeftUpLeg  -0.181038 5.98151 -0.750068
LeftLeg  8.4305 18.1846 -0.966121
LeftFoot  -9.36929 0.0822373 -1.51874
LeftToes  1.06246e-005 4.65854e-005 -8.18502e-006
1348
root  0.743898 40.568 3.60734 67.8725 87.0794 68.4707
RightUpLeg  1.259 -12.7959 -7.8072
RightLeg  13.5967 -2.28202 0.95611
RightFoot  -11.0301 -0.0774261 1.44569
RightToes  0.000482159 0.542163 -0.142577
Spine  6.91912 1.79743 0.836233
Spine1  1.43762 2.58001 -3.12943
HEad  -1.94284 2.3048 -1.13134
LeftShoulder1  1.9213 -4.85242 -16.2002
LeftArm  -15.034 12.6048 -6.53555
LeftForeArm  24.7169 -9.90469 -2.98988
LeftHand  -0.25398 0.0180481 5.50724
RightShoulder  1.10101 1.81393 13.7918
RightArm  -20.4337 -12.9456 7.71316
RightForeArm  -5.65717 9.45446 3.80196
RightHand  -3.35366 10.7332 -24.2524
LeftUpLeg  -0.0404242 6.14976 -1.30365
LeftLeg  9.41989 17.8653 -0.757326
LeftFoot  -10.404 0.078086 -1.94241
LeftToes  1.06246e-005 4.65854e-005 -8.18502e-006
1349
root  0.801842 40.4268 3.41231 64.8447 86.6473 65.9873
RightUpLeg  -0.81322 -13.0668 -7.97597
RightLeg  18.5269 -1.30446 -0.640843
RightFoot  -11.6821 -0.0695817 3.16158
RightToes  0.000482159 0.542163 -0.142577
Spine  7.95609 1.86655 0.236771
Spine1  1.76425 2.63377 -3.34888
HEad  -2.0939 2.10818 -0.9824
LeftShoulder1  2.1352 -5.2919 -17.5954
LeftArm  -14.8832 14.2887 -7.34733
LeftForeArm  23.958 -12.1533 -3.05937
LeftHand  -0.25398 0.0180481 5.50724
RightShoulder  1.19498 2.06712 14.6111
RightArm  -20.0808 -13.525 9.10404
RightForeArm  -4.52901 10.0912 3.93784
RightHand  -3.23526 10.6004 -23.6218
LeftUpLeg  0.176608 6.65058 -1.73189
LeftLeg  10.6835 17.6037 -0.601656
LeftFoot  -11.6039 0.0641703 -2.39715
LeftToes  1.06246e-005 4.65854e-005 -8.18502e-006
1350
root  0.825458 40.2715 3.2048 56.0829 86.0904 57.9806
RightUpLeg  -3.85756 -9.65326 -8.22756
RightLeg  25.3013 -3.28239 -1.94419
RightFoot  -10.6451 -0.118216 6.36573
RightToes  0.000482159 0.542163 -0.142577
Spine  9.72634 1.9612 -0.393748
Spine1  1.8618 2.65934 -3.4903
HEad  -2.81423 2.29355 -0.98361
LeftShoulder1  2.37168 -5.70655 -19.1898
LeftArm  -14.4829 17.0209 -8.64889
LeftForeArm  23.8012 -15.6449 -3.10887
LeftHand  -0.25398 0.0180481 5.50724
RightShoulder  1.33663 2.45829 15.6702
RightArm  -19.3559 -13.7741 10.754
RightForeArm  -2.95626 10.688 4.13724
RightHand  -3.12472 10.4661 -23.035
LeftUpLeg  0.533976 7.45618 -2.03047
LeftLeg  12.0911 17.5202 -0.389859
LeftFoot  -12.8083 0.0432665 -2.63067
LeftToes  1.06246e-005 4.65854e-005 -8.18502e-006
